<svg width="16" height="25" viewBox="0 0 16 25" fill="none" xmlns="http://www.w3.org/2000/svg">
<path d="M15.8976 9.77411C15.7562 9.52768 15.4894 9.37499 15.1999 9.37499H9.6695L10.3973 0.8463C10.4277 0.48927 10.2055 0.157825 9.8582 0.0422493C9.5125 -0.0741079 9.12775 0.0560188 8.9285 0.356995L0.128582 13.6381C-0.0308186 13.8784 -0.0429186 14.1846 0.0973317 14.436C0.237582 14.6874 0.507082 14.8437 0.800033 14.8437H6.33594L5.60234 24.1588C5.57384 24.5189 5.80194 24.8512 6.15389 24.9622C6.23514 24.9877 6.31794 25 6.39999 25C6.67265 25 6.93435 24.8631 7.0828 24.6262L15.8827 10.5638C16.0335 10.3227 16.0394 10.0205 15.8976 9.77411ZM7.45275 21.038L7.99765 14.1225C8.01485 13.9054 7.9383 13.6914 7.7871 13.5315C7.63555 13.3721 7.42265 13.2812 7.2 13.2812H2.27074L8.5375 3.8229L8.00275 10.0915C7.9844 10.3094 8.0598 10.5244 8.21135 10.6854C8.3629 10.846 8.57615 10.9375 8.8 10.9375H13.7734L7.45275 21.038Z" fill="#FA5F1C"/>
</svg>
