<svg width="21" height="26" viewBox="0 0 21 26" fill="none" xmlns="http://www.w3.org/2000/svg">
<path d="M19.3146 4.27014L10.6073 0.538436C10.4539 0.472805 10.2889 0.438965 10.1221 0.438965C9.95536 0.438965 9.79032 0.472805 9.63701 0.538436L0.929692 4.27014C0.704859 4.36537 0.513023 4.52466 0.378094 4.72816C0.243165 4.93166 0.171111 5.17037 0.170912 5.41453V7.97075C0.167315 11.0759 0.893041 14.1384 2.28963 16.9117C3.68623 19.685 5.71464 22.0916 8.2115 23.9375C8.29857 24.0022 8.38937 24.0619 8.47769 24.1278C9.00884 24.5084 9.55367 24.8741 10.1221 25.1988C10.6906 24.8717 11.2354 24.5084 11.7666 24.1278C11.8549 24.0644 11.9444 24.0034 12.0328 23.9375C14.5296 22.0916 16.558 19.685 17.9546 16.9117C19.3512 14.1384 20.0769 11.0759 20.0733 7.97075V5.41453C20.0732 5.17037 20.0011 4.93166 19.8662 4.72816C19.7312 4.52466 19.5394 4.36537 19.3146 4.27014ZM18.2075 7.97075C18.2028 10.5069 17.6645 13.0136 16.6277 15.3281C15.5909 17.6426 14.0788 19.713 12.1895 21.4049C11.9755 21.5989 11.7541 21.7781 11.5302 21.9659C11.3996 22.0716 11.2703 22.1799 11.1359 22.2831C10.8075 22.5319 10.4729 22.7807 10.1209 23.0095C9.76886 22.7794 9.43425 22.5344 9.10586 22.2831C8.97152 22.1799 8.8434 22.0716 8.71154 21.9659C8.48764 21.783 8.26623 21.5927 8.05228 21.4049C6.16347 19.7128 4.65178 17.6422 3.6154 15.3278C2.57903 13.0133 2.04117 10.5067 2.03677 7.97075V5.82502L10.1221 2.35453L18.2075 5.82502V7.97075Z" fill="#1A55AF"/>
<path d="M5.20867 7.29903C5.0979 7.34824 5.00372 7.42844 4.93751 7.52997C4.87129 7.6315 4.83587 7.75002 4.8355 7.87123V9.15245C4.83054 10.8396 5.18649 12.5083 5.87946 14.0465C6.57242 15.5848 7.58639 16.9571 8.8533 18.0712L8.99013 18.1707C9.2542 18.3633 9.52824 18.5419 9.81111 18.7056V5.38342C9.72607 5.38673 9.6421 5.40352 9.56233 5.43318L5.20867 7.29903Z" fill="#1A55AF"/>
</svg>
