<svg width="48" height="49" viewBox="0 0 48 49" fill="none" xmlns="http://www.w3.org/2000/svg">
<rect y="0.483276" width="47.7555" height="47.7555" rx="7.02287" fill="#E0F4F8"/>
<path fill-rule="evenodd" clip-rule="evenodd" d="M28.5434 22.7587C30.6766 22.7587 32.4059 21.0294 32.4059 18.8961C32.4059 16.7629 30.6766 15.0336 28.5434 15.0336C26.4101 15.0336 24.6808 16.7629 24.6808 18.8961C24.6808 19.874 25.0441 20.767 25.6432 21.4474C25.6996 22.0654 25.6324 22.5918 25.1787 22.8656C24.491 23.2806 23.5659 23.1415 22.789 22.8638C22.2131 21.4545 20.8285 20.4614 19.2119 20.4614C17.0787 20.4614 15.3494 22.1908 15.3494 24.324C15.3494 26.4573 17.0787 28.1866 19.2119 28.1866C20.9328 28.1866 22.3908 27.0613 22.8902 25.5064C24.5642 25.2117 25.3591 26.0893 25.6816 27.232C25.0597 27.9176 24.6808 28.8277 24.6808 29.8262C24.6808 31.9594 26.4101 33.6888 28.5434 33.6888C30.6766 33.6888 32.4059 31.9594 32.4059 29.8262C32.4059 27.6929 30.6766 25.9636 28.5434 25.9636C28.233 25.9636 27.9311 26.0002 27.6419 26.0694C27.5122 25.915 27.3768 25.7482 27.2355 25.5682C26.3662 24.4609 26.8672 23.4386 27.665 22.6584C27.9472 22.724 28.2412 22.7587 28.5434 22.7587Z" fill="#43B8D5"/>
</svg>
